<svg width="23" height="23" viewBox="0 0 23 23" fill="none" xmlns="http://www.w3.org/2000/svg">
<path d="M5.97264 2.18848L3.13477 5.97231V19.2157C3.13477 19.7175 3.33409 20.1987 3.6889 20.5535C4.0437 20.9083 4.52492 21.1077 5.02668 21.1077H18.2701C18.7719 21.1077 19.2531 20.9083 19.6079 20.5535C19.9627 20.1987 20.162 19.7175 20.162 19.2157V5.97231L17.3242 2.18848H5.97264Z" stroke="#249333" stroke-width="1.09887" stroke-linecap="round" stroke-linejoin="round"/>
<path d="M3.13477 5.97266H20.162" stroke="#249333" stroke-width="1.09887" stroke-linecap="round" stroke-linejoin="round"/>
<path d="M15.4329 9.75684C15.4329 10.7604 15.0343 11.7228 14.3246 12.4324C13.615 13.142 12.6526 13.5407 11.6491 13.5407C10.6455 13.5407 9.6831 13.142 8.97349 12.4324C8.26389 11.7228 7.86523 10.7604 7.86523 9.75684" stroke="#249333" stroke-width="1.09887" stroke-linecap="round" stroke-linejoin="round"/>
</svg>
