<svg width="15" height="11" viewBox="0 0 15 11" fill="none" xmlns="http://www.w3.org/2000/svg">
<path d="M0.961314 0C0.434334 0 0 0.475783 0 1.05305V9.12695C0 9.70422 0.434334 10.18 0.961314 10.18H13.1387C13.6657 10.18 14.1 9.70422 14.1 9.12695V1.05305C14.1 0.475783 13.6657 0 13.1387 0H0.961314ZM0.961314 0.702015H13.1387L7.05 5.70432L0.961314 0.702015ZM0.640886 1.3164L4.64145 4.60174L0.640886 8.98409V1.3164ZM13.4592 1.3164V8.9844L9.45861 4.60206L13.4592 1.3164ZM5.15733 5.02424L6.85976 6.42291C6.97286 6.51437 7.1271 6.51437 7.24021 6.42291L8.94264 5.02424L13.0084 9.47805H1.09144L5.15733 5.02424Z" fill="#5C5C5C"/>
</svg>
