<svg width="23" height="22" viewBox="0 0 23 22" fill="none" xmlns="http://www.w3.org/2000/svg">
<rect x="0.5" width="22" height="22" rx="11" fill="white"/>
<path d="M4.17061 11.0096C4.02404 7.15061 7.40419 3.58442 11.2671 3.53816C13.2359 3.37023 15.1513 4.13479 16.6413 5.38175C16.0301 6.05377 15.4082 6.71802 14.744 7.33989C13.4323 6.54298 11.853 5.93567 10.32 6.47503C7.84745 7.17908 6.35006 10.0985 7.26506 12.5174C8.02282 15.0437 11.0956 16.4301 13.5038 15.3688C14.7508 14.9223 15.5729 13.7718 15.9337 12.5355C14.5045 12.507 13.0751 12.5248 11.6459 12.4853C11.6424 11.635 11.6388 10.788 11.6424 9.93769C14.0257 9.93413 16.4125 9.92701 18.7994 9.94836C18.9459 12.0317 18.6385 14.2613 17.2842 15.9334C15.4296 18.3203 12.0032 19.0208 9.21575 18.0844C6.25752 17.1128 4.10623 14.1325 4.17061 11.0096Z" fill="#F81704"/>
</svg>
