<svg width="25" height="25" viewBox="0 0 25 25" fill="none" xmlns="http://www.w3.org/2000/svg">
<path d="M21.875 10.417C21.875 17.7087 12.5 23.9587 12.5 23.9587C12.5 23.9587 3.125 17.7087 3.125 10.417C3.125 7.93059 4.11272 5.54602 5.87087 3.78787C7.62903 2.02971 10.0136 1.04199 12.5 1.04199C14.9864 1.04199 17.371 2.02971 19.1291 3.78787C20.8873 5.54602 21.875 7.93059 21.875 10.417Z" stroke="#FFA134" stroke-width="2" stroke-linecap="round" stroke-linejoin="round"/>
<path d="M12.5 13.542C14.2259 13.542 15.625 12.1429 15.625 10.417C15.625 8.6911 14.2259 7.29199 12.5 7.29199C10.7741 7.29199 9.375 8.6911 9.375 10.417C9.375 12.1429 10.7741 13.542 12.5 13.542Z" stroke="#FFA134" stroke-width="2" stroke-linecap="round" stroke-linejoin="round"/>
</svg>
