<svg width="14" height="13" viewBox="0 0 14 13" fill="none" xmlns="http://www.w3.org/2000/svg">
<path d="M13.8278 9.56617L13.8337 9.56513L13.8083 9.44039C13.799 9.39396 13.6996 8.97154 13.6996 8.97154L13.6662 8.85157L13.6597 8.85303C13.1556 7.21434 12.1225 6.70167 10.7053 5.99864L10.423 5.85416C10.8419 5.23295 11.0622 4.51182 11.0622 3.76003C11.0622 1.68676 9.37574 0 7.30245 0C5.22915 0 3.54242 1.68657 3.54242 3.76003C3.54242 4.51254 3.76313 5.23388 4.18254 5.85541L3.90055 5.99792C2.42648 6.72934 1.35304 7.26164 0.876793 9.09241L0.867133 9.09044L0.796089 9.44035C0.640811 10.2062 0.601756 11.4456 0.600302 11.4976C0.588254 11.897 0.733768 12.2735 1.01026 12.5585C1.28666 12.8432 1.6587 13 2.05794 13H12.5464C12.9461 13 13.3179 12.8432 13.5937 12.5579C13.8694 12.2729 14.0133 11.8961 13.9999 11.4968C13.9982 11.449 13.9604 10.3707 13.8278 9.56631L13.8278 9.56617ZM7.30224 0.716111C8.98049 0.716111 10.3457 2.08154 10.3457 3.75981C10.3457 5.43807 8.98025 6.80352 7.30224 6.80352C5.62399 6.80352 4.25853 5.43809 4.25853 3.75981C4.25843 2.08156 5.62375 0.716111 7.30224 0.716111ZM13.0788 12.0603C12.9393 12.2045 12.7505 12.2841 12.5469 12.2841H2.05788C1.85378 12.2841 1.66422 12.2045 1.52412 12.06C1.3839 11.9151 1.30995 11.7231 1.31628 11.5185C1.31805 11.4679 1.35856 10.2706 1.49826 9.58277C1.85783 7.81124 2.6469 7.41966 4.22049 6.63878L4.64872 6.41962C5.35946 7.13007 6.2982 7.51966 7.30259 7.51966C8.30635 7.51966 9.24467 7.12964 9.95533 6.42005L10.3858 6.63941C11.8708 7.37602 12.6886 7.78204 13.0671 9.4026L13.0747 9.43583C13.2375 10.1769 13.2838 11.5075 13.2844 11.5214C13.291 11.7247 13.2181 11.9163 13.0789 12.0603L13.0788 12.0603Z" fill="#5C5C5C"/>
</svg>
