<svg width="19" height="19" viewBox="0 0 19 19" fill="none" xmlns="http://www.w3.org/2000/svg">
<g clip-path="url(#clip0_10147_2714)">
<path d="M7.40355 17.1421C7.81735 17.1421 8.1528 16.8066 8.1528 16.3928C8.1528 15.979 7.81735 15.6436 7.40355 15.6436C6.98975 15.6436 6.6543 15.979 6.6543 16.3928C6.6543 16.8066 6.98975 17.1421 7.40355 17.1421Z" stroke="#FF8901" stroke-width="1.53" stroke-linecap="round" stroke-linejoin="round"/>
<path d="M15.6457 17.1421C16.0595 17.1421 16.395 16.8066 16.395 16.3928C16.395 15.979 16.0595 15.6436 15.6457 15.6436C15.2319 15.6436 14.8965 15.979 14.8965 16.3928C14.8965 16.8066 15.2319 17.1421 15.6457 17.1421Z" stroke="#FF8901" stroke-width="1.53" stroke-linecap="round" stroke-linejoin="round"/>
<path d="M1.41016 1.40723H4.40716L6.41515 11.4397C6.48366 11.7846 6.67132 12.0945 6.94528 12.315C7.21923 12.5356 7.56202 12.6527 7.91365 12.646H15.1964C15.548 12.6527 15.8908 12.5356 16.1647 12.315C16.4387 12.0945 16.6263 11.7846 16.6949 11.4397L17.8937 5.15348H5.15641" stroke="#FF8901" stroke-width="1.53" stroke-linecap="round" stroke-linejoin="round"/>
</g>
<defs>
<clipPath id="clip0_10147_2714">
<rect width="17.982" height="17.982" fill="white" transform="translate(0.660156 0.658203)"/>
</clipPath>
</defs>
</svg>
