<svg width="16" height="18" viewBox="0 0 16 18" fill="none" xmlns="http://www.w3.org/2000/svg">
<path d="M3.25145 1.08496L0.876953 4.25096V15.332C0.876953 15.7518 1.04373 16.1544 1.3406 16.4513C1.63747 16.7482 2.04012 16.915 2.45995 16.915H13.541C13.9608 16.915 14.3634 16.7482 14.6603 16.4513C14.9572 16.1544 15.124 15.7518 15.124 15.332V4.25096L12.7495 1.08496H3.25145Z" stroke="#FF8901" stroke-width="1.5" stroke-linecap="round" stroke-linejoin="round"/>
<path d="M0.876953 4.25098H15.124" stroke="#FF8901" stroke-width="1.5" stroke-linecap="round" stroke-linejoin="round"/>
<path d="M11.166 7.41699C11.166 8.25667 10.8324 9.06195 10.2387 9.65569C9.64494 10.2494 8.83966 10.583 7.99998 10.583C7.16031 10.583 6.35502 10.2494 5.76128 9.65569C5.16754 9.06195 4.83398 8.25667 4.83398 7.41699" stroke="#FF8901" stroke-width="1.5" stroke-linecap="round" stroke-linejoin="round"/>
</svg>
