<svg width="22" height="22" viewBox="0 0 22 22" fill="none" xmlns="http://www.w3.org/2000/svg">
<rect width="22" height="22" rx="11" fill="white"/>
<path d="M4 18L5.05941 14.1481C4.40568 13.0206 4.06217 11.7425 4.0628 10.4319C4.06468 6.33437 7.41497 3 11.5314 3C13.529 3.00063 15.4042 3.775 16.8146 5.18C18.2244 6.585 19.0006 8.4525 19 10.4388C18.9981 14.5369 15.6478 17.8713 11.5314 17.8713C10.2817 17.8706 9.05024 17.5588 7.95943 16.9663L4 18ZM8.1428 15.6206C9.1953 16.2425 10.2001 16.615 11.5289 16.6156C14.9501 16.6156 17.7371 13.8444 17.739 10.4375C17.7403 7.02375 14.9665 4.25625 11.5339 4.255C8.11015 4.255 5.32504 7.02625 5.32379 10.4325C5.32316 11.8231 5.7326 12.8644 6.42025 13.9537L5.79289 16.2337L8.1428 15.6206ZM15.2936 12.2056C15.2472 12.1281 15.1228 12.0819 14.9357 11.9888C14.7492 11.8956 13.8317 11.4462 13.6603 11.3844C13.4894 11.3225 13.3651 11.2913 13.2401 11.4775C13.1158 11.6631 12.7578 12.0819 12.6492 12.2056C12.5406 12.3294 12.4313 12.345 12.2448 12.2519C12.0583 12.1588 11.4567 11.9631 10.7439 11.33C10.1894 10.8375 9.81449 10.2294 9.70585 10.0431C9.59721 9.8575 9.69455 9.75688 9.78749 9.66438C9.87164 9.58125 9.974 9.4475 10.0676 9.33875C10.1624 9.23125 10.1932 9.15375 10.256 9.02938C10.3181 8.90563 10.2874 8.79688 10.2403 8.70375C10.1932 8.61125 9.82015 7.69688 9.66503 7.325C9.51306 6.96312 9.35921 7.01187 9.24491 7.00625L8.88696 7C8.76262 7 8.56041 7.04625 8.3896 7.2325C8.21879 7.41875 7.7365 7.8675 7.7365 8.78188C7.7365 9.69625 8.4053 10.5794 8.49824 10.7031C8.59181 10.8269 9.81386 12.7031 11.6859 13.5075C12.1311 13.6988 12.479 13.8131 12.7497 13.8988C13.1968 14.04 13.6037 14.02 13.9253 13.9725C14.2838 13.9194 15.0293 13.5231 15.185 13.0894C15.3407 12.655 15.3407 12.2831 15.2936 12.2056Z" fill="#25D366"/>
</svg>
